<svg id="Слой_1" data-name="Слой 1" xmlns="http://www.w3.org/2000/svg" viewBox="0 0 12.91949 15.01487"><path d="M7202.19649,7203.09662c-.17519-.14238-.34856-.283-.52162-.424q-1.96569-1.60155-3.93126-3.20325-1.26392-1.03-2.52752-2.06034a.2741.2741,0,0,0-.43279.05383,1.63531,1.63531,0,1,1,.07247-1.8853,2.16751,2.16751,0,0,1,.25062.65669,1.35371,1.35371,0,0,0,1.02843,1.07409,1.50534,1.50534,0,0,0,.75921-.13162c.17061-.07138.18712-.06887.32185.06164q2.26185,2.19085,4.521,4.38447a1.62254,1.62254,0,0,1,.48479,1.38037.54951.54951,0,0,1-.01048.0618A.19046.19046,0,0,1,7202.19649,7203.09662Zm-9.1641-7.70024a1.165,1.165,0,1,0,1.52484.61982A1.167,1.167,0,0,0,7193.03239,7195.39638Zm4.27192,3.20377a.27448.27448,0,1,0,.14352-.35894A.27573.27573,0,0,0,7197.30431,7198.60015Z" transform="translate(-7191.84811 -7191.82467)" style="fill:#0071bc"/><path d="M7198.22785,7197.93465l-.95538-.92463c.07327-.05161.14353-.09534.20738-.147a1.07126,1.07126,0,0,0,.36039-1.17643,1.83016,1.83016,0,0,0-.2662-.6111,1.63252,1.63252,0,1,1,2.12622.53966,1.60846,1.60846,0,0,1-.95318.18128.27575.27575,0,0,0-.35059.28883q-.07742.87881-.156,1.7575C7198.23815,7197.86866,7198.23345,7197.89435,7198.22785,7197.93465Zm-.36583-3.30493a1.16468,1.16468,0,1,0,.61942-1.531A1.16957,1.16957,0,0,0,7197.862,7194.62972Z" transform="translate(-7191.84811 -7191.82467)" style="fill:#0071bc"/><path d="M7196.91991,7198.99076l.536.43615c.19211.1563.38319.3139.57717.46784a.13021.13021,0,0,1,.05424.12924q-.22087,2.45309-.43878,4.90643c-.00208.02328-.00728.04627-.01222.0768a1.48569,1.48569,0,0,1-.52572-.58163,2.0401,2.0401,0,0,1-.20989-1.04912c.011-.73719.008-1.47459.01039-2.2119q.00333-1.02471.00593-2.04943C7196.91708,7199.08021,7196.91858,7199.04527,7196.91991,7198.99076Z" transform="translate(-7191.84811 -7191.82467)" style="fill:#0071bc"/><rect x="7201.43413" y="7195.50921" width="1.17812" height="0.00001" transform="translate(-5468.02936 -8577.32746) rotate(12.47135)" style="fill:none;stroke:#0071bc;stroke-miterlimit:10;stroke-width:0.5px"/><rect x="7201.83927" y="7193.65596" width="0.78541" height="0.00001" transform="translate(-5468.42465 -8577.41628) rotate(12.47135)" style="fill:none;stroke:#0071bc;stroke-miterlimit:10;stroke-width:0.5px"/><rect x="7201.00867" y="7197.41139" width="0.78541" height="0.00001" transform="translate(-5467.63326 -8577.1483) rotate(12.47135)" style="fill:none;stroke:#0071bc;stroke-miterlimit:10;stroke-width:0.5px"/><rect x="7201.42023" y="7192.29842" width="2.35624" height="6.67602" transform="translate(-5467.98832 -8577.44867) rotate(12.47135)" style="fill:none;stroke:#0071bc;stroke-miterlimit:10;stroke-width:0.5px"/><path d="M7203.79488,7200.53552l-1.28418,5.03239a1.42027,1.42027,0,0,1-1.40152,1.02163h-3.21836a1.42027,1.42027,0,0,1-1.40152-1.02163l-1.28418-5.03239a1.35561,1.35561,0,0,1,1.40152-1.62686h5.78672A1.35561,1.35561,0,0,1,7203.79488,7200.53552Z" transform="translate(-7191.84811 -7191.82467)" style="fill:#fff;stroke:#0071bc;stroke-miterlimit:10;stroke-width:0.5px"/><path d="M7199.19189,7201.49609h.27979v2.12989h-.2915v-1.59571l.01464.09375-.52441,1.20606h-.208l-.52441-1.17676.01465-.12305v1.59571h-.29151v-2.12989h.27979l.62549,1.40625Z" transform="translate(-7191.84811 -7191.82467)" style="fill:#0071bc"/><path d="M7199.999,7201.49609h.29883v2.12989h-.29883Zm.15381,1.01953h.68115a.30775.30775,0,0,0,.16993-.04589.29344.29344,0,0,0,.11328-.12891.4382.4382,0,0,0,.04-.19141.44708.44708,0,0,0-.04-.19336.29967.29967,0,0,0-.28321-.17578h-.68115v-.28418h.67041a.68141.68141,0,0,1,.33594.08106.57092.57092,0,0,1,.22461.22949.77155.77155,0,0,1,0,.68457.56245.56245,0,0,1-.22461.22852.681.681,0,0,1-.33594.08007h-.67041Z" transform="translate(-7191.84811 -7191.82467)" style="fill:#0071bc"/></svg>